<svg width="32" height="32" fill="none" xmlns="http://www.w3.org/2000/svg"><path fill-rule="evenodd" clip-rule="evenodd" d="M19.64 4.381a7.948 7.948 0 00-11.54 6.19l-.336 3.021c-.069.622-.1.907-.153 1.184a7.5 7.5 0 01-.662 1.962c-.127.252-.274.498-.596 1.034L5.39 19.38l-.022.037c-.384.64-.702 1.17-.882 1.603-.185.445-.283.928-.024 1.386.26.458.724.621 1.2.692.464.069 1.082.069 1.83.069H24.51c.747 0 1.365 0 1.829-.07.476-.07.94-.233 1.2-.691.26-.458.16-.94-.024-1.386-.18-.433-.498-.963-.882-1.604l-.022-.036-.965-1.608c-.321-.536-.468-.782-.595-1.034a7.503 7.503 0 01-.662-1.962c-.05-.267-.082-.54-.146-1.114a5.779 5.779 0 01-1.011-.047l.01.088.002.023c.066.592.102.917.163 1.236.146.772.398 1.52.75 2.223.145.29.314.57.62 1.082l.012.02.965 1.608c.412.686.69 1.152.837 1.508.147.354.106.46.078.51-.028.05-.099.14-.477.196-.382.056-.924.058-1.724.058H7.532c-.8 0-1.342-.002-1.724-.058-.378-.057-.449-.147-.477-.196-.028-.05-.069-.156.078-.51.148-.356.426-.822.837-1.508l.965-1.608.012-.02c.307-.511.475-.791.62-1.082a8.5 8.5 0 00.75-2.223c.06-.32.097-.644.163-1.236l.002-.023.336-3.022a6.948 6.948 0 019.972-5.47c.166-.293.358-.571.573-.83zM22 6.235c-.235.267-.418.58-.532.926a6.921 6.921 0 011.404 3.256c.317.148.668.236 1.038.248l-.01-.094A7.922 7.922 0 0022 6.235z" fill="#fff"/><path d="M12.136 23.553c.228 1.276.73 2.403 1.429 3.207C14.264 27.564 15.12 28 16 28c.88 0 1.736-.436 2.435-1.24.699-.804 1.2-1.931 1.429-3.207" stroke="#fff" stroke-linecap="round"/><circle cx="24" cy="8" r="4" fill="#FFA724"/></svg>